<svg version="1.1" id="Layer_1" xmlns="http://www.w3.org/2000/svg" xmlns:xlink="http://www.w3.org/1999/xlink" x="0px" y="0px"
	 width="100%" viewBox="0 0 791 628" enable-background="new 0 0 791 628" xml:space="preserve">
<path fill="#000000" opacity="1.000000" stroke="none" 
	d="
M535.000000,629.000000 
	C356.666656,629.000000 178.833328,629.000000 1.000000,629.000000 
	C1.000000,419.666656 1.000000,210.333328 1.000000,1.000000 
	C264.666656,1.000000 528.333313,1.000000 792.000000,1.000000 
	C792.000000,210.333328 792.000000,419.666656 792.000000,629.000000 
	C706.500000,629.000000 621.000000,629.000000 535.000000,629.000000 
M360.079010,108.542198 
	C322.951965,158.944550 291.833984,212.567337 272.642975,273.026306 
	C224.282059,243.670532 173.139893,223.308914 117.697769,213.337997 
	C117.244202,215.072495 116.908661,216.157455 116.678528,217.264343 
	C109.013069,254.133087 107.923599,291.331207 111.708611,328.677338 
	C117.587151,386.679810 135.101028,440.339294 171.601303,486.812561 
	C186.960968,506.368958 204.614212,523.464355 225.350906,537.180481 
	C253.743484,555.960510 284.979370,567.243591 318.743713,571.645447 
	C344.371765,574.986633 369.839478,576.814026 394.625824,566.754456 
	C396.482544,566.000977 399.099823,566.764954 401.279297,567.223633 
	C412.152222,569.511841 422.946533,573.577209 433.863800,573.912109 
	C449.082123,574.378967 464.483063,572.833618 479.631622,570.831299 
	C513.563293,566.346191 544.751526,554.085388 572.726624,534.389404 
	C616.755432,503.390625 645.702820,460.929138 663.880981,410.870850 
	C682.454712,359.723511 687.233459,306.744659 682.637817,252.801880 
	C681.527466,239.768768 679.174438,226.841522 677.327698,213.390991 
	C648.714355,217.925797 622.192200,225.909393 596.208191,235.927689 
	C570.244446,245.938202 545.269958,257.953552 521.381104,273.056549 
	C495.637512,193.106796 450.432922,125.491379 396.787445,61.572227 
	C384.457397,77.350021 372.488129,92.666161 360.079010,108.542198 
z"/>
<path fill="#FAFAFA" opacity="1.000000" stroke="none" 
	d="
M360.298950,108.262253 
	C372.488129,92.666161 384.457397,77.350021 396.787445,61.572227 
	C450.432922,125.491379 495.637512,193.106796 521.381104,273.056549 
	C545.269958,257.953552 570.244446,245.938202 596.208191,235.927689 
	C622.192200,225.909393 648.714355,217.925797 677.327698,213.390991 
	C679.174438,226.841522 681.527466,239.768768 682.637817,252.801880 
	C687.233459,306.744659 682.454712,359.723511 663.880981,410.870850 
	C645.702820,460.929138 616.755432,503.390625 572.726624,534.389404 
	C544.751526,554.085388 513.563293,566.346191 479.631622,570.831299 
	C464.483063,572.833618 449.082123,574.378967 433.863800,573.912109 
	C422.946533,573.577209 412.152222,569.511841 401.279297,567.223633 
	C399.099823,566.764954 396.482544,566.000977 394.625824,566.754456 
	C369.839478,576.814026 344.371765,574.986633 318.743713,571.645447 
	C284.979370,567.243591 253.743484,555.960510 225.350906,537.180481 
	C204.614212,523.464355 186.960968,506.368958 171.601303,486.812561 
	C135.101028,440.339294 117.587151,386.679810 111.708611,328.677338 
	C107.923599,291.331207 109.013069,254.133087 116.678528,217.264343 
	C116.908661,216.157455 117.244202,215.072495 117.697769,213.337997 
	C173.139893,223.308914 224.282059,243.670532 272.642975,273.026306 
	C291.833984,212.567337 322.951965,158.944550 360.298950,108.262253 
M517.354797,446.910614 
	C500.790680,487.823792 474.008331,520.484497 437.397400,545.417603 
	C438.934052,546.006348 440.176483,546.242310 441.394897,546.152588 
	C450.857330,545.455505 460.351959,545.007751 469.767456,543.896667 
	C498.296997,540.529968 525.036926,531.717285 549.328796,516.225647 
	C583.742676,494.278992 608.481140,463.791382 626.111389,427.359375 
	C652.490784,372.847656 658.854919,314.943665 654.542603,255.318832 
	C654.343079,252.559464 653.986511,249.811417 653.696228,246.991852 
	C652.308655,246.991852 651.440796,246.799942 650.695435,247.021133 
	C641.933411,249.621399 633.141846,252.135986 624.449768,254.955811 
	C591.981750,265.488770 561.088745,279.385956 532.418091,298.070160 
	C529.063477,300.256317 528.245911,302.423248 529.175049,306.257294 
	C530.465027,311.580322 531.016357,317.084076 531.851135,322.515503 
	C538.386353,365.037323 533.073669,406.201141 517.354797,446.910614 
M194.672394,264.776489 
	C177.164520,257.573120 159.257706,251.615341 140.470337,246.797623 
	C140.198792,249.089722 139.968353,250.711304 139.819443,252.340347 
	C137.599243,276.626465 137.497681,300.918610 139.975906,325.185181 
	C145.266068,376.986023 159.948471,425.362030 192.222809,467.248688 
	C209.493652,489.663300 229.772537,508.630524 254.823685,522.222473 
	C280.149261,535.963379 307.366364,542.912537 335.906647,545.204529 
	C342.755402,545.754578 349.629639,545.987610 356.492157,546.366394 
	C355.636993,544.346130 354.567322,543.406311 353.400299,542.608948 
	C315.722260,516.863464 289.367523,482.315216 273.937042,439.506134 
	C258.489563,396.649689 255.545654,352.752899 264.594604,308.135559 
	C265.599823,303.179230 264.410400,300.781494 260.248749,298.187805 
	C239.556595,285.291779 217.963745,274.224030 194.672394,264.776489 
M362.157288,515.366333 
	C372.376831,521.599548 382.492493,528.016418 392.906219,533.906311 
	C394.913086,535.041382 398.501190,535.001587 400.660583,533.998535 
	C425.882782,522.282043 447.034668,505.273621 464.272217,483.508392 
	C489.133545,452.116974 501.772491,415.913055 505.617889,376.387115 
	C507.427063,357.790802 506.092743,339.295197 503.448944,319.517487 
	C452.216461,363.608765 424.421600,417.787537 423.228210,484.960266 
	C405.540039,484.960266 388.458954,484.960266 370.833435,484.960266 
	C369.312347,418.310364 341.575958,364.607574 290.865662,321.163940 
	C290.496948,323.090240 290.274170,324.029053 290.141571,324.980438 
	C287.181671,346.212311 286.724701,367.434723 290.000092,388.697479 
	C297.881287,439.860138 320.225372,482.782776 362.157288,515.366333 
M426.515839,146.987961 
	C416.947754,133.684570 407.379669,120.381187 397.614380,106.803596 
	C396.320190,107.980080 395.622253,108.446022 395.140320,109.076942 
	C375.505890,134.781143 356.893799,161.183258 340.776367,189.268524 
	C324.073273,218.374313 309.701935,248.536102 299.975555,280.749573 
	C297.074402,290.358246 297.262482,290.359436 304.975586,296.605713 
	C348.791748,332.089294 379.250275,376.244263 392.349640,431.597321 
	C393.859314,437.976654 394.851929,444.478302 396.084290,450.923248 
	C396.591064,450.978302 397.097809,451.033386 397.604584,451.088440 
	C398.218231,448.025909 398.863464,444.969299 399.440674,441.899902 
	C405.948029,407.296967 419.643494,375.810608 440.338837,347.339661 
	C455.344360,326.696411 473.221497,308.864746 493.360443,293.279114 
	C495.992645,291.242035 496.891968,289.427521 495.733032,286.189362 
	C493.323822,279.457794 491.424194,272.544281 489.028656,265.807373 
	C473.964569,223.442734 452.266998,184.552002 426.515839,146.987961 
z"/>
<path fill="#020202" opacity="1.000000" stroke="none" 
	d="
M517.504883,446.557373 
	C533.073669,406.201141 538.386353,365.037323 531.851135,322.515503 
	C531.016357,317.084076 530.465027,311.580322 529.175049,306.257294 
	C528.245911,302.423248 529.063477,300.256317 532.418091,298.070160 
	C561.088745,279.385956 591.981750,265.488770 624.449768,254.955811 
	C633.141846,252.135986 641.933411,249.621399 650.695435,247.021133 
	C651.440796,246.799942 652.308655,246.991852 653.696228,246.991852 
	C653.986511,249.811417 654.343079,252.559464 654.542603,255.318832 
	C658.854919,314.943665 652.490784,372.847656 626.111389,427.359375 
	C608.481140,463.791382 583.742676,494.278992 549.328796,516.225647 
	C525.036926,531.717285 498.296997,540.529968 469.767456,543.896667 
	C460.351959,545.007751 450.857330,545.455505 441.394897,546.152588 
	C440.176483,546.242310 438.934052,546.006348 437.397400,545.417603 
	C474.008331,520.484497 500.790680,487.823792 517.504883,446.557373 
z"/>
<path fill="#020202" opacity="1.000000" stroke="none" 
	d="
M195.033386,264.904663 
	C217.963745,274.224030 239.556595,285.291779 260.248749,298.187805 
	C264.410400,300.781494 265.599823,303.179230 264.594604,308.135559 
	C255.545654,352.752899 258.489563,396.649689 273.937042,439.506134 
	C289.367523,482.315216 315.722260,516.863464 353.400299,542.608948 
	C354.567322,543.406311 355.636993,544.346130 356.492157,546.366394 
	C349.629639,545.987610 342.755402,545.754578 335.906647,545.204529 
	C307.366364,542.912537 280.149261,535.963379 254.823685,522.222473 
	C229.772537,508.630524 209.493652,489.663300 192.222809,467.248688 
	C159.948471,425.362030 145.266068,376.986023 139.975906,325.185181 
	C137.497681,300.918610 137.599243,276.626465 139.819443,252.340347 
	C139.968353,250.711304 140.198792,249.089722 140.470337,246.797623 
	C159.257706,251.615341 177.164520,257.573120 195.033386,264.904663 
z"/>
<path fill="#030303" opacity="1.000000" stroke="none" 
	d="
M361.869995,515.155640 
	C320.225372,482.782776 297.881287,439.860138 290.000092,388.697479 
	C286.724701,367.434723 287.181671,346.212311 290.141571,324.980438 
	C290.274170,324.029053 290.496948,323.090240 290.865662,321.163940 
	C341.575958,364.607574 369.312347,418.310364 370.833435,484.960266 
	C388.458954,484.960266 405.540039,484.960266 423.228210,484.960266 
	C424.421600,417.787537 452.216461,363.608765 503.448944,319.517487 
	C506.092743,339.295197 507.427063,357.790802 505.617889,376.387115 
	C501.772491,415.913055 489.133545,452.116974 464.272217,483.508392 
	C447.034668,505.273621 425.882782,522.282043 400.660583,533.998535 
	C398.501190,535.001587 394.913086,535.041382 392.906219,533.906311 
	C382.492493,528.016418 372.376831,521.599548 361.869995,515.155640 
z"/>
<path fill="#040404" opacity="1.000000" stroke="none" 
	d="
M426.713715,147.288300 
	C452.266998,184.552002 473.964569,223.442734 489.028656,265.807373 
	C491.424194,272.544281 493.323822,279.457794 495.733032,286.189362 
	C496.891968,289.427521 495.992645,291.242035 493.360443,293.279114 
	C473.221497,308.864746 455.344360,326.696411 440.338837,347.339661 
	C419.643494,375.810608 405.948029,407.296967 399.440674,441.899902 
	C398.863464,444.969299 398.218231,448.025909 397.604584,451.088440 
	C397.097809,451.033386 396.591064,450.978302 396.084290,450.923248 
	C394.851929,444.478302 393.859314,437.976654 392.349640,431.597321 
	C379.250275,376.244263 348.791748,332.089294 304.975586,296.605713 
	C297.262482,290.359436 297.074402,290.358246 299.975555,280.749573 
	C309.701935,248.536102 324.073273,218.374313 340.776367,189.268524 
	C356.893799,161.183258 375.505890,134.781143 395.140320,109.076942 
	C395.622253,108.446022 396.320190,107.980080 397.614380,106.803596 
	C407.379669,120.381187 416.947754,133.684570 426.713715,147.288300 
M382.477844,191.976730 
	C356.695038,217.533752 338.120056,246.730850 335.554352,284.146027 
	C335.337555,287.307190 335.984619,289.446228 338.289276,291.579895 
	C358.598114,310.381775 373.557068,333.114349 386.318420,357.431274 
	C389.621796,363.725861 392.800232,370.085999 396.589294,377.498322 
	C398.053986,375.195251 399.178955,373.743805 399.973450,372.129700 
	C412.812347,346.045837 426.504944,320.190216 447.837067,300.170013 
	C458.354065,290.299805 459.201813,281.015625 456.355652,268.559235 
	C448.109772,232.470581 427.412415,204.742157 399.718781,181.405289 
	C397.557434,179.583969 396.141846,179.793579 394.223450,181.583588 
	C390.574951,184.987854 386.752045,188.205200 382.477844,191.976730 
z"/>
<path fill="#FAFAFA" opacity="1.000000" stroke="none" 
	d="
M382.739685,191.738449 
	C386.752045,188.205200 390.574951,184.987854 394.223450,181.583588 
	C396.141846,179.793579 397.557434,179.583969 399.718781,181.405289 
	C427.412415,204.742157 448.109772,232.470581 456.355652,268.559235 
	C459.201813,281.015625 458.354065,290.299805 447.837067,300.170013 
	C426.504944,320.190216 412.812347,346.045837 399.973450,372.129700 
	C399.178955,373.743805 398.053986,375.195251 396.589294,377.498322 
	C392.800232,370.085999 389.621796,363.725861 386.318420,357.431274 
	C373.557068,333.114349 358.598114,310.381775 338.289276,291.579895 
	C335.984619,289.446228 335.337555,287.307190 335.554352,284.146027 
	C338.120056,246.730850 356.695038,217.533752 382.739685,191.738449 
M376.834290,292.681091 
	C383.615814,302.263092 390.397339,311.845093 397.343201,321.659302 
	C397.764221,321.119934 398.066986,320.753143 398.347290,320.369843 
	C408.145142,306.972382 418.023315,293.631897 427.626862,280.096497 
	C428.755890,278.505249 429.001251,275.712585 428.588165,273.695648 
	C426.095276,261.523987 421.453339,250.110260 414.589844,239.786224 
	C409.417114,232.005493 403.478363,224.734039 397.513702,216.744461 
	C382.950928,232.311600 372.381470,248.637833 366.643768,267.975616 
	C364.713501,274.481262 364.290344,280.097076 370.343567,284.850403 
	C372.765900,286.752563 374.381683,289.681824 376.834290,292.681091 
z"/>
<path fill="#030303" opacity="1.000000" stroke="none" 
	d="
M376.599426,292.412323 
	C374.381683,289.681824 372.765900,286.752563 370.343567,284.850403 
	C364.290344,280.097076 364.713501,274.481262 366.643768,267.975616 
	C372.381470,248.637833 382.950928,232.311600 397.513702,216.744461 
	C403.478363,224.734039 409.417114,232.005493 414.589844,239.786224 
	C421.453339,250.110260 426.095276,261.523987 428.588165,273.695648 
	C429.001251,275.712585 428.755890,278.505249 427.626862,280.096497 
	C418.023315,293.631897 408.145142,306.972382 398.347290,320.369843 
	C398.066986,320.753143 397.764221,321.119934 397.343201,321.659302 
	C390.397339,311.845093 383.615814,302.263092 376.599426,292.412323 
z"/>
</svg>