<svg xmlns="http://www.w3.org/2000/svg" viewBox="100 50 600 540">
<path fill="#2DD4BF" opacity="1.000000" stroke="none"
	d="
M360.298950,108.262253
	C372.488129,92.666161 384.457397,77.350021 396.787445,61.572227
	C450.432922,125.491379 495.637512,193.106796 521.381104,273.056549
	C545.269958,257.953552 570.244446,245.938202 596.208191,235.927689
	C622.192200,225.909393 648.714355,217.925797 677.327698,213.390991
	C679.174438,226.841522 681.527466,239.768768 682.637817,252.801880
	C687.233459,306.744659 682.454712,359.723511 663.880981,410.870850
	C645.702820,460.929138 616.755432,503.390625 572.726624,534.389404
	C544.751526,554.085388 513.563293,566.346191 479.631622,570.831299
	C464.483063,572.833618 449.082123,574.378967 433.863800,573.912109
	C422.946533,573.577209 412.152222,569.511841 401.279297,567.223633
	C399.099823,566.764954 396.482544,566.000977 394.625824,566.754456
	C369.839478,576.814026 344.371765,574.986633 318.743713,571.645447
	C284.979370,567.243591 253.743484,555.960510 225.350906,537.180481
	C204.614212,523.464355 186.960968,506.368958 171.601303,486.812561
	C135.101028,440.339294 117.587151,386.679810 111.708611,328.677338
	C107.923599,291.331207 109.013069,254.133087 116.678528,217.264343
	C116.908661,216.157455 117.244202,215.072495 117.697769,213.337997
	C173.139893,223.308914 224.282059,243.670532 272.642975,273.026306
	C291.833984,212.567337 322.951965,158.944550 360.298950,108.262253
z"/>
<path fill="#2DD4BF" opacity="1.000000" stroke="none"
	d="
M382.739685,191.738449
	C386.752045,188.205200 390.574951,184.987854 394.223450,181.583588
	C396.141846,179.793579 397.557434,179.583969 399.718781,181.405289
	C427.412415,204.742157 448.109772,232.470581 456.355652,268.559235
	C459.201813,281.015625 458.354065,290.299805 447.837067,300.170013
	C426.504944,320.190216 412.812347,346.045837 399.973450,372.129700
	C399.178955,373.743805 398.053986,375.195251 396.589294,377.498322
	C392.800232,370.085999 389.621796,363.725861 386.318420,357.431274
	C373.557068,333.114349 358.598114,310.381775 338.289276,291.579895
	C335.984619,289.446228 335.337555,287.307190 335.554352,284.146027
	C338.120056,246.730850 356.695038,217.533752 382.739685,191.738449
z"/>
</svg>
